<svg width="262" height="262" viewBox="0 0 262 262" fill="none" xmlns="http://www.w3.org/2000/svg">
<path d="M132.637 180.125V203.05" stroke="#B8FF5D" stroke-width="10.5" stroke-linecap="round" stroke-linejoin="round"/>
<path d="M78.0542 240.167H187.221V229.25C187.221 217.242 177.396 207.417 165.388 207.417H99.8875C87.8792 207.417 78.0542 217.242 78.0542 229.25V240.167Z" stroke="#B8FF5D" stroke-width="10.5" stroke-miterlimit="10"/>
<path d="M67.1375 240.167H198.138M131 174.667C88.7525 174.667 54.5834 140.497 54.5834 98.25V65.5C54.5834 41.3741 74.1242 21.8333 98.25 21.8333H163.75C187.876 21.8333 207.417 41.3741 207.417 65.5V98.25C207.417 140.497 173.248 174.667 131 174.667Z" stroke="#B8FF5D" stroke-width="10.5" stroke-linecap="round" stroke-linejoin="round"/>
<path d="M59.7142 127.179C51.5267 124.559 44.3217 119.756 38.645 114.079C28.82 103.162 22.27 90.0625 22.27 74.7792C22.27 59.4958 34.2784 47.4875 49.5617 47.4875H56.6575C54.4742 52.5092 53.3825 58.0767 53.3825 63.8625V96.6125C53.3825 107.529 55.675 117.791 59.7142 127.179ZM202.286 127.179C210.473 124.559 217.678 119.756 223.355 114.079C233.18 103.162 239.73 90.0625 239.73 74.7792C239.73 59.4958 227.722 47.4875 212.438 47.4875H205.343C207.526 52.5092 208.618 58.0767 208.618 63.8625V96.6125C208.618 107.529 206.325 117.791 202.286 127.179Z" stroke="#B8FF5D" stroke-width="10.5" stroke-linecap="round" stroke-linejoin="round"/>
</svg>
