<svg width="65" height="65" viewBox="0 0 65 65" fill="none" xmlns="http://www.w3.org/2000/svg">
<path d="M32.5 31.1458C33.9366 31.1458 35.3144 30.5751 36.3302 29.5593C37.346 28.5435 37.9167 27.1658 37.9167 25.7292C37.9167 24.2926 37.346 22.9148 36.3302 21.899C35.3144 20.8832 33.9366 20.3125 32.5 20.3125C31.0635 20.3125 29.6857 20.8832 28.6699 21.899C27.6541 22.9148 27.0834 24.2926 27.0834 25.7292C27.0834 27.1658 27.6541 28.5435 28.6699 29.5593C29.6857 30.5751 31.0635 31.1458 32.5 31.1458Z" stroke="#C0C1C2" stroke-width="2.5" stroke-miterlimit="10"/>
<path d="M27.0834 36.5625C30.6042 38.1875 34.3959 38.1875 37.9167 36.5625" stroke="#C0C1C2" stroke-width="2.5" stroke-miterlimit="10" stroke-linecap="round" stroke-linejoin="round"/>
<path d="M27.0834 44.6875L32.5 37.9167L37.9167 44.6875" stroke="#C0C1C2" stroke-width="2.5" stroke-miterlimit="10" stroke-linecap="round" stroke-linejoin="round"/>
<path d="M32.5 59.5834C47.4581 59.5834 59.5833 47.4581 59.5833 32.5C59.5833 17.5419 47.4581 5.41669 32.5 5.41669C17.5418 5.41669 5.41663 17.5419 5.41663 32.5C5.41663 47.4581 17.5418 59.5834 32.5 59.5834Z" stroke="#C0C1C2" stroke-width="2.5" stroke-miterlimit="10"/>
</svg>
