<svg width="73" height="65" viewBox="0 0 73 65" fill="none" xmlns="http://www.w3.org/2000/svg">
<path d="M38.1121 55.3042H18.8888C9.27712 55.3042 6.08337 49.6167 6.08337 43.9021V21.0979C6.08337 12.5396 9.27712 9.69586 18.8888 9.69586H38.1121C47.7238 9.69586 50.9175 12.5396 50.9175 21.0979V43.9021C50.9175 52.4604 47.6934 55.3042 38.1121 55.3042Z" stroke="#C0C2C2" stroke-width="2.5" stroke-linecap="round" stroke-linejoin="round"/>
<path d="M59.3733 46.3125L50.9175 41.0312V23.9417L59.3733 18.6604C63.51 16.0875 66.9166 17.6583 66.9166 22.1812V42.8187C66.9166 47.3417 63.51 48.9125 59.3733 46.3125ZM34.9791 29.7917C36.1892 29.7917 37.3497 29.3636 38.2053 28.6018C39.0609 27.8399 39.5416 26.8066 39.5416 25.7292C39.5416 24.6517 39.0609 23.6184 38.2053 22.8565C37.3497 22.0947 36.1892 21.6667 34.9791 21.6667C33.7691 21.6667 32.6086 22.0947 31.753 22.8565C30.8973 23.6184 30.4166 24.6517 30.4166 25.7292C30.4166 26.8066 30.8973 27.8399 31.753 28.6018C32.6086 29.3636 33.7691 29.7917 34.9791 29.7917Z" stroke="#C0C2C2" stroke-width="2.5" stroke-linecap="round" stroke-linejoin="round"/>
</svg>
