<svg width="68" height="68" viewBox="0 0 68 68" fill="none" xmlns="http://www.w3.org/2000/svg">
<path d="M22.6666 5.66669V14.1667M45.3333 5.66669V14.1667" stroke="#C0C2C2" stroke-width="3.5" stroke-miterlimit="10" stroke-linecap="round" stroke-linejoin="round"/>
<path d="M62.3333 62.3333L59.5 59.5M51.5667 60.6333C53.9713 60.6333 56.2774 59.6781 57.9778 57.9778C59.6781 56.2774 60.6333 53.9713 60.6333 51.5667C60.6333 49.162 59.6781 46.8559 57.9778 45.1556C56.2774 43.4552 53.9713 42.5 51.5667 42.5C49.162 42.5 46.8559 43.4552 45.1556 45.1556C43.4552 46.8559 42.5 49.162 42.5 51.5667C42.5 53.9713 43.4552 56.2774 45.1556 57.9778C46.8559 59.6781 49.162 60.6333 51.5667 60.6333Z" stroke="#C0C2C2" stroke-width="3.5" stroke-linecap="round" stroke-linejoin="round"/>
<path d="M9.91667 25.755H58.0833M37.8817 62.3334H22.6667C12.75 62.3334 8.5 56.6667 8.5 48.1667V24.0834C8.5 15.5834 12.75 9.91669 22.6667 9.91669H45.3333C55.25 9.91669 59.5 15.5834 59.5 24.0834V36.8334" stroke="#C0C2C2" stroke-width="3.5" stroke-miterlimit="10" stroke-linecap="round" stroke-linejoin="round"/>
<path d="M33.9858 38.8167H34.0141M23.4996 38.8167H23.528M23.4996 47.3167H23.528" stroke="#C0C2C2" stroke-width="5" stroke-linecap="round" stroke-linejoin="round"/>
</svg>
