<svg width="311" height="311" viewBox="0 0 311 311" fill="none" xmlns="http://www.w3.org/2000/svg">
<path d="M220.292 238.822H168.458L110.794 277.179C108.848 278.476 106.586 279.221 104.25 279.333C101.914 279.446 99.5909 278.922 97.5291 277.818C95.4672 276.714 93.7438 275.071 92.5426 273.064C91.3413 271.057 90.7074 268.762 90.7084 266.423V238.822C51.8334 238.822 25.9167 212.905 25.9167 174.03V96.2804C25.9167 57.4054 51.8334 31.4888 90.7084 31.4888H220.292C259.167 31.4888 285.083 57.4054 285.083 96.2804V174.03C285.083 212.905 259.167 238.822 220.292 238.822Z" stroke="#B8FF5D" stroke-width="16.5" stroke-miterlimit="10" stroke-linecap="round" stroke-linejoin="round"/>
<path d="M155.5 147.207V144.485C155.5 135.674 160.943 131.009 166.385 127.251C171.698 123.622 177.011 118.958 177.011 110.405C177.011 98.4833 167.422 88.8942 155.5 88.8942C143.578 88.8942 133.989 98.4833 133.989 110.405M155.435 178.177H155.565" stroke="#B8FF5D" stroke-width="16.5" stroke-linecap="round" stroke-linejoin="round"/>
</svg>
